<svg width="3429" height="965" xmlns="http://www.w3.org/2000/svg" xmlns:xlink="http://www.w3.org/1999/xlink" xml:space="preserve" overflow="hidden"><g transform="translate(-469 -1328)"><path d="M608.37 2006.35 573.899 2109.67 652.494 2188.19 755.908 2153.75C783.343 2169.08 812.503 2181.11 842.775 2189.57L891.035 2286 1001.34 2286 1049.6 2189.57C1079.52 2181.35 1108.26 2169.31 1135.09 2153.75L1238.51 2188.19 1317.1 2109.67 1282.63 2006.35C1297.97 1978.93 1310 1949.8 1318.48 1919.56L1415 1871.34 1415 1761.14 1317.1 1714.3C1308.87 1684.41 1296.82 1655.7 1281.25 1628.89L1315.72 1525.57 1237.13 1447.04 1133.71 1481.48C1106.28 1466.15 1077.12 1454.13 1046.85 1445.67L999.965 1349 889.656 1349 841.396 1445.43C811.478 1453.65 782.744 1465.69 755.908 1481.25L652.494 1446.81 573.899 1525.33 608.37 1628.65C593.032 1656.06 580.997 1685.2 572.52 1715.44L476 1762.28 476 1872.49 572.52 1920.7C580.733 1950.67 592.782 1979.46 608.37 2006.35ZM503.577 1779.69 584.571 1740.38 595.836 1734.86 599.132 1722.8C607.048 1694.65 618.262 1667.53 632.541 1642L638.346 1631.45 634.541 1620.01 605.447 1532.83 659.953 1478.36 747.193 1507.42 758.983 1511.35 769.738 1505.12C794.513 1490.75 821.041 1479.64 848.663 1472.06L860.563 1468.82 866.078 1457.8 906.727 1376.55 982.729 1376.55 1022.03 1457.55 1027.54 1468.8 1039.62 1472.09C1067.79 1480.01 1094.92 1491.22 1120.46 1505.48L1131.04 1511.29 1142.48 1507.48 1229.72 1478.41 1284.23 1532.88 1255.14 1620.07 1251.21 1631.85 1257.44 1642.58C1271.83 1667.34 1282.95 1693.85 1290.53 1721.46L1293.85 1733.62 1305.23 1739.07 1387.42 1778.42 1387.42 1854.29 1306.14 1894.9 1295.11 1900.41 1291.87 1912.29C1283.95 1940.44 1272.74 1967.55 1258.46 1993.08L1252.65 2003.63 1256.46 2015.07 1285.55 2102.26 1231.05 2156.73 1143.81 2127.66 1132.02 2123.73 1121.26 2129.96C1096.48 2144.33 1069.95 2155.44 1042.32 2163.02L1030.44 2166.26 1024.92 2177.28 984.274 2258.56 908.106 2258.56 867.471 2177.28 861.955 2166.26 850.056 2163.02C821.894 2155.1 794.764 2143.89 769.227 2129.63L758.651 2123.82 747.207 2127.63 659.967 2156.7 605.461 2102.23 634.568 2015.07 638.484 2003.29 632.266 1992.54C617.873 1967.79 606.75 1941.27 599.173 1913.66L595.919 1901.79 584.888 1896.28 503.577 1855.67Z" stroke="#0E3C6E" stroke-width="13.75" stroke-miterlimit="8" fill="#0E3C6E" fill-rule="evenodd"/><path d="M707.182 2121.5 715.202 2230.17 817.957 2272.4 900.073 2200.79C931.287 2204.38 962.818 2204.25 994.002 2200.41L1075.68 2270.86 1177.43 2228.39 1184.78 2120.78C1209.21 2101.67 1231.07 2079.49 1249.83 2054.8L1358.49 2046.78 1400.73 1944.02 1329.11 1861.9C1332.7 1830.69 1332.57 1799.16 1328.74 1767.98L1399.18 1686.3 1356.71 1584.55 1248.36 1579C1229.25 1554.58 1207.07 1532.71 1182.38 1513.95L1174.36 1405.29 1071.6 1363.06 989.489 1434.67C958.274 1431.08 926.744 1431.2 895.559 1435.04L815.065 1363.85 713.317 1406.32 705.964 1513.93C681.535 1533.04 659.67 1555.21 640.913 1579.91L532.253 1587.93 490.018 1690.69 561.63 1772.8C558.046 1804.02 558.173 1835.55 562.008 1866.73L491.029 1947.14 533.499 2048.88 641.109 2056.24C660.233 2080.74 682.441 2102.68 707.182 2121.5ZM523.176 1952.6 582.732 1885.11 591 1875.69 589.389 1863.28C585.842 1834.24 585.735 1804.89 589.07 1775.82L590.358 1763.84 582.441 1754.75 522.006 1685.46 551.291 1614.19 642.962 1607.43 655.349 1606.52 662.87 1596.63C680.185 1573.82 700.372 1553.35 722.929 1535.72L732.657 1528.15 733.498 1515.85 739.68 1425.18 809.784 1395.92 877.248 1455.58 886.667 1463.83 899.077 1462.22C928.11 1458.69 957.458 1458.59 986.514 1461.92L998.509 1463.22 1007.59 1455.29 1076.86 1394.87 1148.13 1424.17 1154.89 1515.87 1155.81 1528.25 1165.69 1535.76C1188.5 1553.08 1208.98 1573.27 1226.61 1595.84L1234.37 1605.8 1246.96 1606.44 1337.94 1611.13 1367.17 1681.17 1307.85 1749.96 1299.8 1759.29 1301.39 1771.51C1304.93 1800.54 1305.04 1829.9 1301.71 1858.96L1300.42 1870.94 1308.33 1880.03 1368.77 1949.32 1339.48 2020.6 1247.81 2027.35 1235.43 2028.27 1227.9 2038.16C1210.59 2060.96 1190.4 2081.44 1167.83 2099.07L1158.12 2106.64 1157.28 2118.94 1151.11 2209.62 1080.85 2238.95 1012.05 2179.56 1002.71 2171.51 990.487 2173.1C961.459 2176.63 932.115 2176.73 903.063 2173.39L891.068 2172.09 881.982 2180.02 812.714 2240.45 741.447 2211.15 734.707 2119.47 733.78 2107.09 723.903 2099.56C701.087 2082.25 680.61 2062.05 662.981 2039.48L655.403 2029.77 643.105 2028.93 552.454 2022.74Z" stroke="#0E3C6E" stroke-width="13.75" stroke-miterlimit="8" fill="#0E3C6E" fill-rule="evenodd"/><path d="M592 1817.5C592 1622.27 750.267 1464 945.5 1464 1140.73 1464 1299 1622.27 1299 1817.5 1299 2012.73 1140.73 2171 945.5 2171 750.267 2171 592 2012.73 592 1817.5Z" stroke="#0E3C6E" stroke-width="27.5" stroke-linejoin="round" stroke-miterlimit="10" fill="none" fill-rule="evenodd"/><path d="M879.5 2035.5 1042 1604.5 1204.5 2035.5Z" stroke="#0E3C6E" stroke-width="6.875" stroke-miterlimit="8" fill="#0E3C6E" fill-rule="evenodd"/><path d="M1012.5 1604.5 849.5 2035.5 686.5 1604.5Z" stroke="#0E3C6E" stroke-width="6.875" stroke-miterlimit="8" fill="#0E3C6E" fill-rule="evenodd"/><text fill="#0E3C6E" font-family="Avenir Next LT Pro,Avenir Next LT Pro_MSFontService,sans-serif" font-weight="700" font-size="385" transform="matrix(1 0 0 1 1488.45 1811)">Elemsin Eirl</text><text fill="#0E3C6E" font-family="Avenir Next LT Pro,Avenir Next LT Pro_MSFontService,sans-serif" font-weight="700" font-size="142" transform="matrix(1 0 0 1 1495.68 1981)">Ingeniería Eléctrica, Electrónica </text><text fill="#0E3C6E" font-family="Avenir Next LT Pro,Avenir Next LT Pro_MSFontService,sans-serif" font-weight="700" font-size="142" transform="matrix(1 0 0 1 1828.49 2152)">y Telecomunicaciones</text></g></svg>